<svg width="64" height="64" viewBox="0 0 64 64" fill="none" xmlns="http://www.w3.org/2000/svg">
<path d="M52.2001 12.7006C51.8672 12.2915 51.3862 12.0305 50.8618 11.9743C50.3374 11.9181 49.8121 12.0713 49.4001 12.4006C46.3056 14.7776 42.5019 16.0455 38.6001 16.0006C38.2861 16.638 38.1571 17.3508 38.2278 18.0578C38.2986 18.7649 38.5661 19.4379 39.0001 20.0006C43.6789 19.9652 48.2145 18.383 51.9001 15.5006C52.3092 15.1677 52.5702 14.6867 52.6264 14.1623C52.6826 13.6379 52.5294 13.1126 52.2001 12.7006Z" fill="#0064D2"/>
<path d="M44.7 6.1C38.8 6.1 38.4 2 34.7 2C31 2 30.4 6 24.7 6C20.7 6 12.7 0.4 12.7 4C12.7 7.6 19 12.8 22.5 16H38.6C43.5 10.8 46.7 6.1 44.7 6.1ZM39 20.1H22.4C17.6 24.6 6.70001 36.4 6.70001 52C6.70001 54.6522 7.75358 57.1957 9.62894 59.0711C11.5043 60.9464 14.0478 62 16.7 62H44.7C47.3522 62 49.8957 60.9464 51.7711 59.0711C53.6464 57.1957 54.7 54.6522 54.7 52C54.7 36.5 43.9 24.6 39 20.1ZM32.7 36C33.2304 36 33.7392 36.2107 34.1142 36.5858C34.4893 36.9609 34.7 37.4696 34.7 38C34.7 38.5304 34.4893 39.0391 34.1142 39.4142C33.7392 39.7893 33.2304 40 32.7 40H24.2C24.1483 40.3648 24.1149 40.7319 24.1 41.1V42H32.6C33.1304 42 33.6392 42.2107 34.0142 42.5858C34.3893 42.9609 34.6 43.4696 34.6 44C34.6 44.5304 34.3893 45.0391 34.0142 45.4142C33.6392 45.7893 33.1304 46 32.6 46H25.3C26.205 47.7984 27.5904 49.3109 29.3026 50.37C31.0148 51.4291 32.9868 51.9932 35 52H36.7C37.2304 52 37.7392 52.2107 38.1142 52.5858C38.4893 52.9609 38.7 53.4696 38.7 54C38.7 54.5304 38.4893 55.0391 38.1142 55.4142C37.7392 55.7893 37.2304 56 36.7 56H35C31.9189 55.9853 28.9181 55.0157 26.4109 53.2248C23.9036 51.4339 22.0132 48.9098 21 46H18.7C18.1696 46 17.6609 45.7893 17.2858 45.4142C16.9107 45.0391 16.7 44.5304 16.7 44C16.7 43.4696 16.9107 42.9609 17.2858 42.5858C17.6609 42.2107 18.1696 42 18.7 42H20.2V41.1C20.2 40.8 20.2 40.3 20.3 40H18.7C18.1696 40 17.6609 39.7893 17.2858 39.4142C16.9107 39.0391 16.7 38.5304 16.7 38C16.7 37.4696 16.9107 36.9609 17.2858 36.5858C17.6609 36.2107 18.1696 36 18.7 36H21.1C22.1568 33.1623 24.0531 30.7139 26.5363 28.9809C29.0196 27.248 31.9719 26.3128 35 26.3H36.7C37.2304 26.3 37.7392 26.5107 38.1142 26.8858C38.4893 27.2609 38.7 27.7696 38.7 28.3C38.7 28.8304 38.4893 29.3391 38.1142 29.7142C37.7392 30.0893 37.2304 30.3 36.7 30.3H35C33.0346 30.2963 31.1048 30.8241 29.4148 31.8276C27.7249 32.831 26.3376 34.2727 25.4 36H32.7Z" fill="#0064D2"/>
<path d="M57 24.4C56.0827 23.0429 54.8461 21.9319 53.3988 21.1647C51.9516 20.3975 50.338 19.9975 48.7 20C48.1696 20 47.6609 20.2107 47.2858 20.5858C46.9107 20.9609 46.7 21.4696 46.7 22C46.7 22.5304 46.9107 23.0392 47.2858 23.4142C47.6609 23.7893 48.1696 24 48.7 24C49.6826 23.9908 50.6524 24.2231 51.5243 24.6764C52.3961 25.1298 53.1432 25.7903 53.7 26.6C54.0195 26.9655 54.461 27.2024 54.9421 27.2664C55.4233 27.3304 55.9114 27.2172 56.3153 26.9479C56.7192 26.6787 57.0114 26.2717 57.1374 25.8029C57.2633 25.3341 57.2145 24.8355 57 24.4Z" fill="#0064D2"/>
</svg>
