<svg width="64" height="64" viewBox="0 0 64 64" fill="none" xmlns="http://www.w3.org/2000/svg">
<path d="M58 4H56.4L55.9 4.3H55.7L55.2 4.7H55.1C54.68 5.13175 54.363 5.65276 54.1725 6.22417C53.982 6.79557 53.9231 7.40262 54 8V10H62V8C62 6.93913 61.5786 5.92172 60.8284 5.17157C60.0783 4.42143 59.0609 4 58 4ZM30 50H2V52C2 54.1217 2.84285 56.1566 4.34315 57.6569C5.84344 59.1571 7.87827 60 10 60H33.1C31.1161 57.8065 30.0122 54.9576 30 52V50Z" fill="#0064D2"/>
<path d="M16 7.99961V45.9996H34V51.9996C34 54.1213 34.8429 56.1562 36.3431 57.6565C37.8434 59.1568 39.8783 59.9996 42 59.9996C44.1217 59.9996 46.1566 59.1568 47.6569 57.6565C49.1571 56.1562 50 54.1213 50 51.9996V5.69961L50.2 5.19961L50.4 4.59961L50.7 4.09961H20C18.9562 4.09928 17.9537 4.50696 17.2063 5.23561C16.459 5.96426 16.0261 6.95617 16 7.99961ZM25.1 9.99961H41.1C41.6304 9.99961 42.1391 10.2103 42.5142 10.5854C42.8893 10.9605 43.1 11.4692 43.1 11.9996C43.1 12.53 42.8893 13.0388 42.5142 13.4138C42.1391 13.7889 41.6304 13.9996 41.1 13.9996H25.1C24.5696 13.9996 24.0609 13.7889 23.6858 13.4138C23.3107 13.0388 23.1 12.53 23.1 11.9996C23.1 11.4692 23.3107 10.9605 23.6858 10.5854C24.0609 10.2103 24.5696 9.99961 25.1 9.99961ZM25.1 17.9996H37.1C37.6304 17.9996 38.1391 18.2103 38.5142 18.5854C38.8893 18.9605 39.1 19.4692 39.1 19.9996C39.1 20.53 38.8893 21.0387 38.5142 21.4138C38.1391 21.7889 37.6304 21.9996 37.1 21.9996H25.1C24.5696 21.9996 24.0609 21.7889 23.6858 21.4138C23.3107 21.0387 23.1 20.53 23.1 19.9996C23.1 19.4692 23.3107 18.9605 23.6858 18.5854C24.0609 18.2103 24.5696 17.9996 25.1 17.9996ZM25.1 25.9996H41.1C41.6304 25.9996 42.1391 26.2103 42.5142 26.5854C42.8893 26.9605 43.1 27.4692 43.1 27.9996C43.1 28.53 42.8893 29.0387 42.5142 29.4138C42.1391 29.7889 41.6304 29.9996 41.1 29.9996H25.1C24.5696 29.9996 24.0609 29.7889 23.6858 29.4138C23.3107 29.0387 23.1 28.53 23.1 27.9996C23.1 27.4692 23.3107 26.9605 23.6858 26.5854C24.0609 26.2103 24.5696 25.9996 25.1 25.9996ZM25.1 33.9996H37.1C37.6304 33.9996 38.1391 34.2103 38.5142 34.5854C38.8893 34.9605 39.1 35.4692 39.1 35.9996C39.1 36.53 38.8893 37.0388 38.5142 37.4138C38.1391 37.7889 37.6304 37.9996 37.1 37.9996H25.1C24.5696 37.9996 24.0609 37.7889 23.6858 37.4138C23.3107 37.0388 23.1 36.53 23.1 35.9996C23.1 35.4692 23.3107 34.9605 23.6858 34.5854C24.0609 34.2103 24.5696 33.9996 25.1 33.9996Z" fill="#0064D2"/>
</svg>
