<svg width="64" height="64" viewBox="0 0 64 64" fill="none" xmlns="http://www.w3.org/2000/svg">
<path d="M63.128 26L55 19.5V4.99996C55 4.73474 54.8946 4.48039 54.7071 4.29285C54.5196 4.10531 54.2652 3.99996 54 3.99996H47C46.7348 3.99996 46.4804 4.10531 46.2929 4.29285C46.1053 4.48039 46 4.73474 46 4.99996V12.3L32.625 1.59996C32.4477 1.4582 32.2275 1.38098 32.0005 1.38098C31.7735 1.38098 31.5533 1.4582 31.376 1.59996L0.871991 26C0.761872 26.0878 0.671568 26.198 0.606996 26.3232C0.542424 26.4485 0.505042 26.5859 0.4973 26.7266C0.489557 26.8673 0.51163 27.008 0.562071 27.1396C0.612511 27.2711 0.690182 27.3905 0.789991 27.49L3.63099 30.331C3.80553 30.5054 4.03843 30.6092 4.28488 30.6223C4.53133 30.6354 4.77393 30.5569 4.96599 30.402L31.372 9.07396C31.5499 8.93019 31.7717 8.85177 32.0005 8.85177C32.2292 8.85177 32.4511 8.93019 32.629 9.07396L59.034 30.4C59.2261 30.5549 59.4686 30.6334 59.7151 30.6203C59.9616 30.6072 60.1945 30.5034 60.369 30.329L63.21 27.49C63.3098 27.3905 63.3875 27.2711 63.4379 27.1396C63.4884 27.008 63.5104 26.8673 63.5027 26.7266C63.4949 26.5859 63.4576 26.4485 63.393 26.3232C63.3284 26.198 63.2381 26.0878 63.128 26Z" fill="#0064D2"/>
<path d="M32 12L9 31V61C9 61.2652 9.10536 61.5196 9.29289 61.7071C9.48043 61.8946 9.73478 62 10 62H22V41C22 40.7348 22.1054 40.4804 22.2929 40.2929C22.4804 40.1054 22.7348 40 23 40H41C41.2652 40 41.5196 40.1054 41.7071 40.2929C41.8946 40.4804 42 40.7348 42 41V62H54C54.2652 62 54.5196 61.8946 54.7071 61.7071C54.8946 61.5196 55 61.2652 55 61V31L32 12ZM32 33C31.0111 33 30.0444 32.7068 29.2221 32.1573C28.3999 31.6079 27.759 30.827 27.3806 29.9134C27.0022 28.9998 26.9031 27.9945 27.0961 27.0245C27.289 26.0546 27.7652 25.1637 28.4645 24.4645C29.1637 23.7652 30.0546 23.289 31.0245 23.0961C31.9945 22.9031 32.9998 23.0022 33.9134 23.3806C34.827 23.759 35.6079 24.3999 36.1573 25.2221C36.7068 26.0444 37 27.0111 37 28C37 29.3261 36.4732 30.5979 35.5355 31.5355C34.5979 32.4732 33.3261 33 32 33Z" fill="#0064D2"/>
<path d="M25 42H39C39.2652 42 39.5196 42.1054 39.7071 42.2929C39.8946 42.4804 40 42.7348 40 43V62H24V43C24 42.7348 24.1054 42.4804 24.2929 42.2929C24.4804 42.1054 24.7348 42 25 42Z" fill="#0064D2"/>
</svg>
