<svg width="64" height="64" viewBox="0 0 64 64" fill="none" xmlns="http://www.w3.org/2000/svg">
<path d="M58.6144 49.0889C58.7386 48.4018 58.8015 47.7051 58.8024 47.0069C58.7998 46.2502 58.7251 45.4954 58.5794 44.7529L61.6654 42.9719L57.6654 36.0419L54.5324 37.8509C53.4284 36.9171 52.1647 36.1905 50.8024 35.7059V32.0059H42.8024V35.7059C41.4526 36.1851 40.1995 36.902 39.1024 37.8229L36.0204 36.0419L32.0204 42.9719L35.0324 44.7099C34.8803 45.4671 34.8033 46.2375 34.8024 47.0099C34.8054 47.7227 34.8723 48.4339 35.0024 49.1349L31.6904 51.0449L35.6904 57.9749L38.9714 56.0799C40.0982 57.055 41.3967 57.8118 42.8004 58.3119V62.0119H50.8004V58.3119C52.2204 57.8056 53.5333 57.0384 54.6714 56.0499L58.0004 57.9719L62.0004 51.0419L58.6144 49.0889ZM46.8434 52.0069C45.8545 52.0069 44.8878 51.7136 44.0656 51.1642C43.2433 50.6148 42.6025 49.8339 42.224 48.9203C41.8456 48.0066 41.7466 47.0013 41.9395 46.0314C42.1324 45.0615 42.6086 44.1706 43.3079 43.4713C44.0072 42.7721 44.8981 42.2959 45.868 42.1029C46.8379 41.91 47.8432 42.009 48.7568 42.3875C49.6705 42.7659 50.4514 43.4068 51.0008 44.229C51.5502 45.0513 51.8434 46.018 51.8434 47.0069C51.8434 47.6635 51.7141 48.3136 51.4628 48.9203C51.2116 49.5269 50.8433 50.0781 50.379 50.5424C49.9147 51.0067 49.3635 51.375 48.7568 51.6263C48.1502 51.8775 47.5 52.0069 46.8434 52.0069Z" fill="#0064D2"/>
<path d="M28.938 40.311L31.426 36H2V48C2 48.5304 2.21071 49.0391 2.58579 49.4142C2.96086 49.7893 3.46957 50 4 50H27.823C28.0985 48.9772 28.7685 48.1054 29.686 47.576L30.801 46.933V46.887L30.02 46.436C29.1156 45.8887 28.4502 45.0213 28.156 44.006C28.035 43.369 28.0418 42.7143 28.176 42.08C28.3103 41.4457 28.5693 40.8443 28.938 40.311ZM11 45C10.4067 45 9.82664 44.8241 9.33329 44.4944C8.83994 44.1648 8.45542 43.6962 8.22836 43.148C8.0013 42.5999 7.94189 41.9967 8.05764 41.4147C8.1734 40.8328 8.45912 40.2982 8.87868 39.8787C9.29824 39.4591 9.83279 39.1734 10.4147 39.0576C10.9967 38.9419 11.5999 39.0013 12.1481 39.2284C12.6962 39.4554 13.1648 39.8399 13.4944 40.3333C13.8241 40.8266 14 41.4067 14 42C14 42.7957 13.6839 43.5587 13.1213 44.1213C12.5587 44.6839 11.7956 45 11 45ZM42.8 28.006H50.8C51.4229 28.0067 52.0369 28.1536 52.5926 28.4348C53.1484 28.7159 53.6304 29.1236 54 29.625V20H2V32H38.8C38.8016 30.9402 39.2237 29.9243 39.9737 29.1755C40.7237 28.4266 41.7402 28.006 42.8 28.006ZM11 29C10.4067 29 9.82664 28.8241 9.33329 28.4944C8.83994 28.1648 8.45542 27.6962 8.22836 27.1481C8.0013 26.5999 7.94189 25.9967 8.05764 25.4147C8.1734 24.8328 8.45912 24.2982 8.87868 23.8787C9.29824 23.4591 9.83279 23.1734 10.4147 23.0576C10.9967 22.9419 11.5999 23.0013 12.1481 23.2284C12.6962 23.4554 13.1648 23.8399 13.4944 24.3333C13.8241 24.8266 14 25.4067 14 26C14 26.7956 13.6839 27.5587 13.1213 28.1213C12.5587 28.6839 11.7956 29 11 29ZM28 26C28 25.4696 28.2107 24.9609 28.5858 24.5858C28.9609 24.2107 29.4696 24 30 24H46C46.5304 24 47.0391 24.2107 47.4142 24.5858C47.7893 24.9609 48 25.4696 48 26C48 26.5304 47.7893 27.0391 47.4142 27.4142C47.0391 27.7893 46.5304 28 46 28H30C29.4696 28 28.9609 27.7893 28.5858 27.4142C28.2107 27.0391 28 26.5304 28 26ZM54 4C54 3.46957 53.7893 2.96086 53.4142 2.58579C53.0391 2.21071 52.5304 2 52 2H4C3.46957 2 2.96086 2.21071 2.58579 2.58579C2.21071 2.96086 2 3.46957 2 4V16H54V4ZM11 13C10.4067 13 9.82664 12.8241 9.33329 12.4944C8.83994 12.1648 8.45542 11.6962 8.22836 11.1481C8.0013 10.5999 7.94189 9.99667 8.05764 9.41473C8.1734 8.83279 8.45912 8.29824 8.87868 7.87868C9.29824 7.45912 9.83279 7.1734 10.4147 7.05764C10.9967 6.94189 11.5999 7.0013 12.1481 7.22836C12.6962 7.45542 13.1648 7.83994 13.4944 8.33329C13.8241 8.82664 14 9.40666 14 10C14 10.7956 13.6839 11.5587 13.1213 12.1213C12.5587 12.6839 11.7956 13 11 13ZM46 12H30C29.4696 12 28.9609 11.7893 28.5858 11.4142C28.2107 11.0391 28 10.5304 28 10C28 9.46957 28.2107 8.96086 28.5858 8.58579C28.9609 8.21071 29.4696 8 30 8H46C46.5304 8 47.0391 8.21071 47.4142 8.58579C47.7893 8.96086 48 9.46957 48 10C48 10.5304 47.7893 11.0391 47.4142 11.4142C47.0391 11.7893 46.5304 12 46 12Z" fill="#0064D2"/>
</svg>
